<?xml version="1.0" encoding="UTF-8" standalone="no"?>
<svg
   xmlns:dc="http://purl.org/dc/elements/1.1/"
   xmlns:cc="http://creativecommons.org/ns#"
   xmlns:rdf="http://www.w3.org/1999/02/22-rdf-syntax-ns#"
   xmlns:svg="http://www.w3.org/2000/svg"
   xmlns="http://www.w3.org/2000/svg"
   xmlns:sodipodi="http://sodipodi.sourceforge.net/DTD/sodipodi-0.dtd"
   xmlns:inkscape="http://www.inkscape.org/namespaces/inkscape"
   viewBox="0 0 131.5625 142.8125"
   height="142.8125"
   width="131.5625"
   xml:space="preserve"
   version="1.1"
   id="svg2"
   inkscape:version="0.48.5 r10040"
   sodipodi:docname="ic_bluetooth.svg"
   inkscape:export-filename="C:\Users\dgiger\Documents\GitHub\BillSplitter\app\src\main\res\drawable-xxhdpi\ic_bluetooth.png"
   inkscape:export-xdpi="90"
   inkscape:export-ydpi="90"><sodipodi:namedview
     pagecolor="#ffffff"
     bordercolor="#666666"
     borderopacity="1"
     objecttolerance="10"
     gridtolerance="10"
     guidetolerance="10"
     inkscape:pageopacity="0"
     inkscape:pageshadow="2"
     inkscape:window-width="640"
     inkscape:window-height="480"
     id="namedview9"
     showgrid="false"
     inkscape:zoom="1.6525164"
     inkscape:cx="65.78125"
     inkscape:cy="71.40625"
     inkscape:window-x="0"
     inkscape:window-y="0"
     inkscape:window-maximized="0"
     inkscape:current-layer="svg2" /><metadata
     id="metadata8"><rdf:RDF><cc:Work
         rdf:about=""><dc:format>image/svg+xml</dc:format><dc:type
           rdf:resource="http://purl.org/dc/dcmitype/StillImage" /><dc:title></dc:title></cc:Work></rdf:RDF></metadata><defs
     id="defs6" /><g
     transform="matrix(1.25,0,0,-1.25,0,142.8125)"
     id="g10"><g
       transform="scale(0.1,0.1)"
       id="g12"><path
         id="path14"
         style="fill:#1a5dad;fill-opacity:1;fill-rule:evenodd;stroke:none"
         d="m 466.676,858.699 94.277,-94.277 -94.203,-94.207 -0.074,188.484 0,0 z m 0,-577.137 94.277,94.266 -94.203,94.219 -0.074,-188.485 0,0 z M 366.031,570.125 162.219,774.48 l 59.062,59.063 162.407,-162.41 0,389.247 L 678.949,765.105 483.965,570.125 678.949,375.145 383.688,79.8828 l 0,389.2462 -162.407,-162.41 -59.062,59.062 203.812,204.344 0,0 z M 420.629,0 C 669.59,0 841.168,118.262 841.168,570.125 841.168,1022 669.59,1140.26 420.629,1140.26 171.672,1140.26 0,1022 0,570.125 0,118.262 171.672,0 420.629,0 l 0,0" /><path
         id="path16"
         style="fill:#231f20;fill-opacity:1;fill-rule:nonzero;stroke:none"
         d="m 1052.46,1055.16 c 0,-47.44 -40.35,-87.379 -87.788,-87.379 -49.512,0 -87.371,38.279 -87.371,87.379 0,48.27 39.105,87.37 87.371,87.37 49.508,0 87.788,-37.86 87.788,-87.37 z M 896.852,1056 c 0,-37.46 30.375,-69.906 67.82,-69.906 37.868,0 67.808,30.786 67.808,68.226 0,37.87 -29.94,69.91 -67.808,69.91 -37.445,0 -67.82,-30.79 -67.82,-68.23 z m 84.043,-48.28 -26.625,42.45 -1.247,0 0,-42.45 -16.644,0 0,96.12 29.125,0 c 22.879,0 32.031,-9.57 32.031,-24.13 0,-16.23 -9.98,-26.21 -25.371,-27.87 2.078,-2.5 5.82,-7.91 9.57,-13.73 l 19.966,-30.39 -20.805,0 z m -17.055,82.81 -10.817,0 0,-29.55 6.657,0 c 15.394,0 20.382,8.75 20.382,16.64 0,9.16 -4.16,12.91 -16.222,12.91" /></g></g></svg>