<?xml version="1.0" encoding="UTF-8" standalone="no"?>
<!-- Created with Inkscape (http://www.inkscape.org/) -->

<svg
   xmlns:dc="http://purl.org/dc/elements/1.1/"
   xmlns:cc="http://creativecommons.org/ns#"
   xmlns:rdf="http://www.w3.org/1999/02/22-rdf-syntax-ns#"
   xmlns:svg="http://www.w3.org/2000/svg"
   xmlns="http://www.w3.org/2000/svg"
   xmlns:sodipodi="http://sodipodi.sourceforge.net/DTD/sodipodi-0.dtd"
   xmlns:inkscape="http://www.inkscape.org/namespaces/inkscape"
   width="512"
   height="512"
   id="svg2"
   version="1.1"
   inkscape:version="0.48.5 r10040"
   sodipodi:docname="ic_launcher.svg"
   inkscape:export-filename="C:\Users\dgiger\Documents\GitHub\BillSplitter\app\src\main\res\drawable-hdpi\ic_launcher.png"
   inkscape:export-xdpi="12.66"
   inkscape:export-ydpi="12.66">
  <defs
     id="defs4" />
  <sodipodi:namedview
     id="base"
     pagecolor="#ffffff"
     bordercolor="#666666"
     borderopacity="1.0"
     inkscape:pageopacity="0.0"
     inkscape:pageshadow="2"
     inkscape:zoom="0.74577668"
     inkscape:cx="606.08827"
     inkscape:cy="241.03039"
     inkscape:document-units="px"
     inkscape:current-layer="layer1"
     showgrid="false"
     showborder="true"
     fit-margin-top="0"
     fit-margin-left="0"
     fit-margin-right="0"
     fit-margin-bottom="0"
     showguides="true"
     inkscape:guide-bbox="true"
     inkscape:window-width="1920"
     inkscape:window-height="1018"
     inkscape:window-x="-8"
     inkscape:window-y="-8"
     inkscape:window-maximized="1" />
  <metadata
     id="metadata7">
    <rdf:RDF>
      <cc:Work
         rdf:about="">
        <dc:format>image/svg+xml</dc:format>
        <dc:type
           rdf:resource="http://purl.org/dc/dcmitype/StillImage" />
        <dc:title />
      </cc:Work>
    </rdf:RDF>
  </metadata>
  <g
     inkscape:label="Layer 1"
     inkscape:groupmode="layer"
     id="layer1"
     transform="translate(0,-540.3622)">
    <path
       sodipodi:type="arc"
       style="fill:#33b5e5;fill-opacity:1;stroke:none"
       id="path2991"
       sodipodi:cx="-29.866667"
       sodipodi:cy="432.82962"
       sodipodi:rx="244.14815"
       sodipodi:ry="244.14815"
       d="m 214.28148,432.82962 a 244.14815,244.14815 0 1 1 -488.29629,0 244.14815,244.14815 0 1 1 488.29629,0 z"
       transform="matrix(0.85825243,0,0,0.85825243,281.63314,424.88513)" />
    <rect
       style="stroke:#000000;stroke-width:1;stroke-miterlimit:4;stroke-opacity:1;stroke-dasharray:none"
       id="rect3771"
       width="0"
       height="456.05927"
       x="-319.52591"
       y="85.333328"
       transform="translate(0,540.3622)" />
    <text
       xml:space="preserve"
       style="font-size:468.21759033px;font-style:normal;font-weight:normal;line-height:125%;letter-spacing:0px;word-spacing:0px;fill:#ffffff;fill-opacity:1;stroke:none;font-family:Sans"
       x="128.429"
       y="952.39661"
       id="text3795"
       sodipodi:linespacing="125%"><tspan
         sodipodi:role="line"
         id="tspan3797"
         x="128.429"
         y="952.39661"
         style="font-style:normal;font-variant:normal;font-weight:normal;font-stretch:normal;fill:#ffffff;fill-opacity:1;font-family:Franklin Gothic Medium;-inkscape-font-specification:Franklin Gothic Medium">S</tspan></text>
    <rect
       style="fill:#ffffff;fill-opacity:1;stroke:none"
       id="rect3805"
       width="333.74814"
       height="78.696297"
       x="162.13333"
       y="-78.696297"
       transform="translate(0,540.3622)" />
    <path
       style="fill:#33b5e5;fill-opacity:1;stroke:none"
       d="m 135.06902,932.50774 c 1.27649,-0.34965 2.5185,-0.45089 3.82946,-1.04895 1.61554,-0.73708 1.5059,-1.97824 2.39908,-2.98916 0.45225,-0.51188 0.98611,-0.84238 1.43838,-1.35425 0.4045,-0.45783 0.64047,-1.08995 0.9607,-1.63492 0.48035,-0.81746 0.9607,-1.63493 1.44105,-2.4524 0.16012,-0.27249 0.40836,-0.53189 0.48036,-0.81746 0.10183,-0.40385 -0.1624,-0.69221 0.003,-1.09815 0.35016,-0.86114 1.0909,-1.59126 1.44106,-2.45239 0.33013,-0.81189 -0.28187,-1.38147 0.005,-2.19632 0.2031,-0.57618 0.75761,-1.05874 0.9607,-1.63492 0.1436,-0.40743 -0.0991,-0.69432 0.003,-1.09815 0.072,-0.28557 0.40836,-0.53189 0.48035,-0.81747 0.10184,-0.40384 -0.0992,-0.6943 0.003,-1.09816 0.0735,-0.29148 1.22471,-2.08423 1.44105,-2.45238 1.28094,-2.17991 4.45817,-6.25611 5.73911,-8.43601 1.60117,-2.72488 8.89123,-3.55346 2.90722,-6.27835 -0.69466,-0.31632 1.51997,-2.81549 1.9214,-3.26984 0.45225,-0.51189 0.98612,-0.84237 1.43838,-1.35425 0.38696,-0.43796 0.57375,-1.19695 0.9607,-1.63493 4.63273,-5.24351 -0.89503,1.20789 2.39642,-1.89101 5.9033,-1.15007 0.32023,-0.54498 0.48035,-0.81746 0.32023,-0.54497 0.64046,-1.08995 0.9607,-1.63492 1.44105,-2.45241 2.88211,-4.90479 4.32317,-7.35718 0.38669,-0.65809 1.51997,-2.8155 1.9214,-3.26986 0.45224,-0.51188 5.72687,2.00207 6.17912,1.4902 0.40143,-0.45437 -3.20604,-5.4562 -2.81933,-6.1143 0.16011,-0.27249 0.32023,-0.54498 0.48034,-0.81745 0.16012,-0.27249 0.40836,-0.53191 0.48035,-0.81747 0.10183,-0.40386 -0.14092,-0.69074 0.003,-1.09815 0.14686,-0.41671 1.81394,-2.84367 1.92141,-3.26987 0.10183,-0.40384 -0.0992,-0.6943 0.003,-1.09814 0.33314,-1.32118 1.00813,-0.39131 0.48302,-1.91562 -0.0708,-0.20553 -0.4783,-0.0219 -0.47768,-0.2807 10e-4,-0.51767 0.81671,-1.06379 0.96071,-1.63492 0.10183,-0.40385 -0.0992,-0.69431 0.003,-1.09816 0.072,-0.28556 0.32023,-0.54497 0.48035,-0.81746 0.16012,-0.27249 0.32023,-0.54498 0.48035,-0.81746 0.64047,-1.08996 1.28093,-2.17991 1.9214,-3.26986 1.12083,-1.90741 2.24164,-3.81483 3.36246,-5.72225 0.21634,-0.36814 1.22219,-2.24632 1.44106,-2.45238 0.70662,-0.66529 1.20943,-0.40827 1.91606,-1.07356 0.21441,-0.20191 0.25454,-0.69095 0.48035,-0.81747 0.50491,-0.28293 0.94031,0.13484 1.43571,-0.25608 0.44308,-0.34965 0.5451,-1.19842 0.9607,-1.63492 1.49846,-1.57383 3.33435,-2.13129 4.79282,-3.78204 0.38519,-0.43598 3.42989,-5.837 3.84281,-6.53971 2.08152,-3.54235 4.16305,-7.08468 6.24457,-10.62703 0.16012,-0.27248 0.32023,-0.54498 0.48035,-0.81746 0.16012,-0.27249 0.47972,-0.55863 0.48035,-0.81747 6.3e-4,-0.25884 -0.47831,-0.0219 -0.47767,-0.28069 6.2e-4,-0.25883 0.32023,-0.54498 0.48035,-0.81746 0.32022,-0.54497 0.64046,-1.08995 0.96069,-1.63493 1.12082,-1.90742 2.24165,-3.81483 3.36247,-5.72225 0.32024,-0.54497 0.64224,-1.82206 0.96071,-1.63493 0.31845,0.18713 -0.64226,1.82206 -0.96071,1.63493 -0.35604,-0.20921 0.48162,-1.33684 0.48303,-1.91561 6.1e-4,-0.25884 -0.64047,1.08995 -0.48035,0.81746 0.32023,-0.54498 0.7576,-1.05874 0.96069,-1.63493 0.14361,-0.40742 -0.22373,-0.71281 0.003,-1.09815 0.16012,-0.27248 0.31845,0.18713 0.47768,0.2807 0.31379,0.18439 1.7419,1.15285 1.91071,1.12275 0.21403,-0.0382 0.47971,-0.55863 0.48035,-0.81747 6.2e-4,-0.25884 -0.37725,-0.1058 -0.47768,-0.28069 -0.22455,-0.39116 -0.3774,-0.86677 -0.475,-1.37884 -0.0617,-0.32387 0.002,-0.73211 0.003,-1.09816 -0.15835,-0.4596 -0.37739,-0.86675 -0.47501,-1.37883 -0.0617,-0.32387 0.10283,-0.80747 0.003,-1.09815 -0.0709,-0.20553 -0.47831,-0.0219 -0.47768,-0.2807 6.3e-4,-0.25884 0.32024,-0.54497 0.48036,-0.81746 0.16011,-0.27249 0.25453,-0.69095 0.48035,-0.81746 0.1883,-0.10554 1.9089,1.86604 1.91338,0.0246 6.4e-4,-0.25884 -0.47831,-0.0219 -0.47768,-0.28069 0.005,-2.17935 2.41398,1.0709 0.005,-2.1963 -0.23128,-0.31371 -0.81373,-0.15029 -0.95536,-0.56138 -0.0709,-0.20553 0.26634,-0.7793 0.48036,-0.81746 0.48072,-0.0857 2.71021,1.95666 3.34375,1.96482 0.45098,0.006 0.9847,-0.26189 1.43569,-0.25609 0.20167,0.003 0.26329,0.48255 0.47768,0.28069 0.64326,-0.60564 0.9607,-1.63493 1.44106,-2.45239 0.32023,-0.54498 0.64047,-1.08996 0.9607,-1.63494 0.16012,-0.27248 0.55116,-0.61191 0.48035,-0.81746 -0.1416,-0.41109 -0.86802,-0.10338 -0.95535,-0.56138 -0.0976,-0.51205 0.48161,-1.33684 0.48302,-1.9156 6.3e-4,-0.25885 -0.40686,-0.0752 -0.47768,-0.2807 -0.10018,-0.29066 0.10282,-0.80747 0.003,-1.09815 -0.0709,-0.20553 -0.47831,-0.0219 -0.47768,-0.28069 6.4e-4,-0.25884 0.47972,-0.55864 0.48035,-0.81746 0.001,-0.48808 -1.27588,0.10561 0.003,-1.09817 0.30324,-0.28548 0.6387,-0.35781 0.95803,-0.53677 0.7988,-0.63034 1.63962,-1.12088 2.39641,-1.89101 0.8654,-0.8807 1.53367,-2.10848 2.39907,-2.98917 0.75679,-0.77015 1.62331,-1.16314 2.39642,-1.89102 0.67805,-0.63839 1.31522,-1.39473 1.91872,-2.1717 2.63831,-3.39667 3.7278,-5.25039 5.76155,-8.71142 0.11414,-0.19426 1.86728,-3.05518 1.92141,-3.26986 1.00511,-3.98616 -0.48059,0.89326 -0.47501,-1.37883 6.2e-4,-0.25884 0.47972,-0.55863 0.48035,-0.81747 0.001,-0.57878 -0.47641,-0.80007 -0.475,-1.37884 6.3e-4,-0.25884 0.47971,-0.55863 0.48035,-0.81747 -1.16374,-3.37812 -0.55669,0.0327 0.005,-2.19629 0.13419,-0.5322 -0.14954,-1.93273 0.005,-2.19631 0.16011,-0.27249 0.25187,0.4072 0.47768,0.28069 0.2258,-0.12653 0.26593,-0.6156 0.48036,-0.81747 0.30323,-0.28549 0.65476,-0.25129 0.95803,-0.53677 0.61168,-0.57592 0.91524,-2.43449 0.96337,-2.73308 0.0635,-0.39405 0.002,-0.73212 0.003,-1.09816 0.002,-0.73211 0.20562,-1.61493 0.005,-2.19631 -0.45314,-1.31538 -1.47096,0.3959 -0.95268,-1.65952 0.072,-0.28557 0.40836,-0.5319 0.48035,-0.81746 0.10184,-0.40386 -0.22374,-0.71281 0.003,-1.09816 0.16011,-0.27248 0.31845,0.18713 0.47767,0.28069 0.15922,0.0936 0.31845,0.18713 0.47768,0.28068 1.18053,0.69371 0.50373,0.81442 1.91338,0.0246 0.31933,-0.17895 0.65478,-0.2513 0.95803,-0.53677 0.21445,-0.20182 0.32023,-0.54498 0.48035,-0.81746 0.16011,-0.27249 0.32023,-0.54498 0.48035,-0.81746 0.32023,-0.54498 0.75762,-1.05875 0.9607,-1.63494 0.22708,-0.64419 0.25596,-1.27141 0.48303,-1.91561 0.10155,-0.2881 0.40835,-0.53189 0.48035,-0.81747 0.10183,-0.40384 -0.0992,-0.6943 0.003,-1.09815 0.22769,-0.90302 0.73567,-1.83004 0.96338,-2.73308 0.10183,-0.40385 -0.0992,-0.6943 0.003,-1.09815 0.072,-0.28556 0.32023,-0.54497 0.48035,-0.81746 0.16012,-0.27249 0.25454,-0.69094 0.48035,-0.81746 0.22581,-0.12653 0.25187,0.4072 0.47768,0.28068 0.22581,-0.12652 0.25454,-0.69095 0.48035,-0.81747 0.22581,-0.12652 0.26366,0.31887 0.47768,0.2807 0.19062,-0.034 2.68313,-1.43055 2.87409,-1.61033 0.21445,-0.20182 0.32023,-0.54497 0.48035,-0.81746 0.48035,-0.81747 1.0909,-1.59127 1.44106,-2.4524 0.26098,-0.64184 0.322,-1.27707 0.48301,-1.91561 0.16101,-0.63855 0.32202,-1.27709 0.48303,-1.91563 0.16101,-0.63854 0.32202,-1.27707 0.48302,-1.9156 0.16101,-0.63854 0.48162,-1.33684 0.48303,-1.91562 0.003,-1.15756 -0.95281,-1.60013 -0.95,-2.75768 6.4e-4,-0.25884 0.47972,-0.55863 0.48035,-0.81747 0.002,-0.65629 -1.47455,0.32221 -0.475,-1.37884 0.16012,-0.27248 0.26365,0.31886 0.47768,0.28069 0.30265,-0.054 0.65534,-0.48279 0.95803,-0.53677 0.21402,-0.0381 0.25187,0.4072 0.47767,0.28068 0.4516,-0.25304 0.53186,-1.23117 0.96071,-1.63492 0.30323,-0.2855 0.65478,-0.2513 0.95803,-0.53678 0.2144,-0.20191 0.32024,-0.54497 0.48035,-0.81745 0.32023,-0.54498 0.58427,-1.13723 0.9607,-1.63494 0.59526,-0.78691 1.32348,-1.38478 1.91873,-2.17171 0.37644,-0.49771 0.58427,-1.13721 0.9607,-1.63492 0.59525,-0.78692 1.33652,-1.37038 1.91874,-2.17171 0.66705,-0.91806 2.76551,-4.70636 3.36246,-5.72224 0.33169,-0.56447 1.84795,-2.97865 1.92141,-3.26986 0.10183,-0.40384 -0.0992,-0.6943 0.003,-1.09814 0.072,-0.28557 0.40835,-0.5319 0.48035,-0.81746 0.10184,-0.40386 -0.0992,-0.69432 0.003,-1.09816 0.14666,-0.58161 2.73545,-4.32318 2.88211,-4.90478 0.10183,-0.40385 -0.0992,-0.6943 0.003,-1.09816 0.072,-0.28557 0.32023,-0.54498 0.48035,-0.81746 8.8e-4,-0.36605 -0.0992,-0.69431 0.003,-1.09815 0.48303,-1.91562 0.47857,-0.0854 0.95803,-0.53678 0.16907,-0.15928 1.60586,-2.73285 1.9214,-3.26985 0.39327,-0.66926 2.1937,-3.49704 2.40176,-4.08732 0.22708,-0.6442 0.22204,-1.27377 0.48304,-1.91562 0.45951,-1.13008 1.933,-2.93454 2.40175,-4.08732 0.3691,-0.90771 0.59428,-1.82536 0.96338,-2.73309 0.19743,-0.48561 1.34712,-2.3997 1.44105,-2.45238 0.22581,-0.12652 0.25187,0.4072 0.47768,0.28069 0.2258,-0.12652 0.25454,-0.69095 0.48035,-0.81747 0.2258,-0.12652 0.25187,0.4072 0.47767,0.28069 0.47902,-0.26839 0.96205,-2.184 1.44106,-2.45238 0.50491,-0.28294 0.93077,0.0268 1.4357,-0.2561 0.22581,-0.12653 0.26593,-0.61559 0.48035,-0.81746 0.30324,-0.2855 0.63871,-0.35782 0.95804,-0.53677 0.6387,-0.35782 1.29012,-0.86623 1.91605,-1.07354 1.23818,-0.41013 -0.50519,1.57126 1.43571,-0.2561 0.0377,-0.0354 1.42843,-2.40227 1.44106,-2.45239 0.10182,-0.40384 0.10281,-0.80747 0.003,-1.09815 -0.0709,-0.20553 -0.47831,-0.0219 -0.47768,-0.28069 10e-4,-0.57878 0.38262,-1.2926 0.48303,-1.91561 0.0635,-0.39404 0.002,-0.73211 0.003,-1.09816 8.9e-4,-0.36605 0.1028,-0.80747 0.003,-1.09815 -0.0708,-0.20557 -0.4783,-0.0219 -0.47768,-0.28069 6.3e-4,-0.25884 0.47972,-0.55862 0.48035,-0.81747 6.3e-4,-0.25883 -0.63779,-0.008 -0.47767,-0.28069 0.22644,-0.38535 0.65536,-0.48278 0.95802,-0.53677 0.21404,-0.0381 0.26366,0.31887 0.47768,0.2807 0.30266,-0.054 0.6387,-0.35782 0.95803,-0.53677 0.6387,-0.35782 1.28404,-0.82283 1.91606,-1.07356 0.49967,-0.19817 0.94031,0.13483 1.43572,-0.25608 0.2352,-0.18563 2.60575,-4.43448 2.8821,-4.90479 0.16011,-0.27248 0.47971,-0.55862 0.48035,-0.81746 0.002,-0.6727 -0.8412,-1.43052 -0.47233,-2.477 3.18625,-5.42236 -0.45414,1.28839 0.96337,-2.73307 0.34125,-0.96807 1.58018,-2.30179 1.92141,-3.26986 0.22707,-0.6442 0.32202,-1.27708 0.48303,-1.91562 0.16101,-0.63854 0.48162,-1.33683 0.48303,-1.91562 10e-4,-0.57878 -0.57541,-0.75582 -0.475,-1.37883 0.0898,-0.55726 0.78163,-1.05944 0.9607,-1.63493 2.40149,-7.71834 -0.24313,-0.38978 0.48837,-4.11192 -1.621,-2.06015 1.47135,-3.66011 1.92675,-5.46617 0.20367,-0.80769 -0.19832,-1.38861 0.005,-2.1963 0.0799,-0.31672 2.03207,-3.45819 2.40175,-4.08732 0.16012,-0.27249 0.25454,-0.69094 0.48035,-0.81746 0.22581,-0.12653 0.25188,0.4072 0.47768,0.28068 0.22581,-0.12652 0.25454,-0.69095 0.48035,-0.81747 0.22581,-0.12652 0.25188,0.40721 0.47768,0.28069 0.22581,-0.12653 0.32023,-0.54497 0.48035,-0.81746 0.80058,-1.36243 1.60117,-2.72487 2.40175,-4.08732 0.1165,-0.19825 1.41026,-2.43511 1.44107,-2.45239 0.0308,-0.0172 1.31717,0.774 1.43303,0.84207 3.02528,1.7777 6.05056,3.55539 9.07585,5.33309 0.47767,0.28068 0.95536,0.56137 1.43304,0.84206 0.15923,0.0936 0.37728,0.1057 0.47768,0.28069 0.22454,0.39114 0.21642,1.02809 0.475,1.37884 0.23128,0.31371 0.63689,0.37426 0.95534,0.56138 0.31845,0.18712 0.6369,0.37425 0.95536,0.56137 1.43304,0.84207 2.86607,1.68414 4.29909,2.52621 1.43303,0.84205 2.86607,1.68412 4.29909,2.52619 0.47768,0.28069 1.05885,0.40651 1.43303,0.84207 0.27892,0.32463 0.19611,1.05419 0.47501,1.37883 0.40298,0.46905 2.65293,1.55889 3.34374,1.96482 0.31845,0.18712 0.70588,0.27101 0.95535,0.56138 0.39444,0.45912 0.55822,1.20043 0.95268,1.65953 0.24946,0.29037 0.63691,0.37425 0.95536,0.56138 0.65005,0.38197 1.26066,0.74077 1.9107,1.12275 1.91071,1.12275 3.82142,2.24551 5.73213,3.36827 1.2738,0.74849 2.54761,1.497 3.82142,2.24551 0.79612,0.46781 1.7347,0.718 2.38838,1.40343 0.41342,0.43352 0.53927,1.22602 0.95268,1.65954 0.65368,0.68543 1.76472,0.67751 2.38838,1.40344 0.39443,0.45912 0.5258,1.24479 0.95268,1.65953 0.53992,0.52463 1.27381,0.74851 1.9107,1.12275 1.11459,0.65495 2.22917,1.30989 3.34374,1.96483 0.2498,0.14677 1.84826,0.94148 1.91071,1.12275 0.10018,0.29067 -0.10282,0.80747 -0.003,1.09815 0.0709,0.20553 0.47832,0.0219 0.47769,0.28069 -6.4e-4,0.25883 -0.55117,0.61191 -0.48035,0.81747 0.15364,0.44602 1.91166,0.72828 1.9107,1.12275 -6.3e-4,0.25884 -0.32113,0.91102 -0.48035,0.81746 -0.15923,-0.0936 0.68204,-0.81487 0.48035,-0.81746 -5.64395,-0.0726 0.57031,1.76454 -4.30712,0.76825 -0.37506,-0.0766 -0.63689,-0.37424 -0.95535,-0.56138 -1.43303,-0.84205 -2.86606,-1.68412 -4.2991,-2.52619 -0.31843,-0.18712 -0.63689,-0.37425 -0.95535,-0.56138 -0.15922,-0.0936 -0.25187,-0.4072 -0.47768,-0.28068 -0.22581,0.12652 -0.32023,0.54498 -0.48035,0.81746 -0.16012,0.27249 -0.55115,0.61192 -0.48035,0.81747 0.75254,2.18444 1.43857,-1.43046 1.43036,1.9402 -6.3e-4,0.25885 -0.47972,0.55864 -0.48035,0.81747 -6.4e-4,0.25884 0.47831,0.0219 0.47768,0.2807 -10e-6,0.001 -1.43939,2.44839 -1.44106,2.45239 -0.1436,0.40742 0.0434,0.71047 -0.003,1.09815 -0.11739,0.98838 -0.3683,2.02539 -0.4857,3.01377 -0.2314,1.94834 0.63818,0.91589 -0.48838,4.11192 -0.30465,0.86427 -1.06371,1.59575 -1.44106,2.45239 -0.28124,0.63851 -0.25594,1.27143 -0.48302,1.91562 -0.15936,0.45221 -1.35945,2.40668 -1.44105,2.45239 -1.78761,1.00158 -1.6226,-0.44236 -2.39106,-0.30528 -0.60535,0.10797 -1.31071,0.96557 -1.91605,1.07354 -0.21404,0.0381 -0.25188,-0.40721 -0.47768,-0.28068 -0.22581,0.12652 -0.32024,0.54497 -0.48036,0.81745 -0.16011,0.2725 -0.32023,0.54499 -0.48035,0.81747 -0.32023,0.54498 -0.8709,1.07769 -0.96069,1.63492 -1.32289,2.3192 0.95466,0.84102 0.95267,1.65954 -10e-4,0.57877 -0.32202,1.27708 -0.48303,1.91562 -0.16101,0.63854 -0.25596,1.27142 -0.48302,1.91561 -0.10156,0.2881 -0.40835,0.5319 -0.48035,0.81747 -0.10184,0.40385 0.22373,0.71281 -0.003,1.09815 -0.32024,0.54497 -0.52649,-0.96515 -0.95535,-0.56138 -0.42885,0.40376 -0.64047,1.08995 -0.96071,1.63493 -0.16012,0.27249 -0.36364,0.53042 -0.48035,0.81747 -0.3691,0.90771 -0.56561,1.8301 -0.96337,2.73308 -0.2516,0.57107 -0.81669,1.0638 -0.96072,1.63493 -0.20365,0.8077 0.0868,1.42094 -0.005,2.1963 -0.15763,1.32724 -1.40882,5.28397 -1.92943,6.5643 -0.23343,0.57411 -0.64047,1.08996 -0.9607,1.63494 -0.32024,0.54497 -0.5562,1.17709 -0.96071,1.63492 -0.62847,0.71134 -1.97477,0.6541 -2.39373,0.79287 -0.31296,0.10367 -0.65536,0.48279 -0.95803,0.53678 -0.67679,0.12072 -1.20677,-0.30493 -1.91338,-0.0246 -0.49963,0.19825 -0.93346,1.07133 -1.43838,1.35425 -1.09257,0.61215 -1.76743,-0.60342 -2.39641,1.89101 -0.072,0.28557 0.47831,0.0218 0.47768,0.2807 -6.3e-4,0.25883 -0.47972,0.55861 -0.48035,0.81745 -10e-4,0.57877 0.3774,0.86677 0.475,1.37884 0.0655,0.34336 0.0757,4.05004 -0.0107,4.39261 -0.49475,1.96213 -1.38813,-0.3189 -1.91337,-0.0246 -0.50492,0.28293 -0.98614,0.84237 -1.43839,1.35424 -0.20226,0.22892 -0.32023,0.54498 -0.48035,0.81747 -0.32024,0.54497 -0.8167,1.06379 -0.9607,1.63492 -0.072,0.28558 0.434,0.0517 0.47767,0.28069 0.2197,1.15211 0.0193,2.67169 -0.48838,4.11192 -0.20309,0.57619 -0.64046,1.08994 -0.9607,1.63492 -0.16011,0.27249 -0.25453,0.69095 -0.48035,0.81747 -0.2258,0.12652 -0.25187,-0.40721 -0.47768,-0.28069 -0.22581,0.12652 -0.25453,0.69095 -0.48035,0.81746 -0.22581,0.12653 -0.25187,-0.40719 -0.47767,-0.28068 -8.8e-4,4.9e-4 -1.43839,2.44898 -1.44105,2.45239 -0.57206,0.64747 -1.39531,0.35683 -1.91606,1.07355 -0.64904,0.89327 -3.44325,5.85973 -4.32317,7.35717 -0.25118,0.42748 -1.85786,3.01804 -1.9214,3.26987 -0.10184,0.40384 -0.002,0.73209 -0.003,1.09814 -0.48035,0.81747 -1.06371,1.59576 -1.44106,2.45239 -0.5165,1.17253 -0.74728,4.151 -0.96873,4.9294 -0.5164,1.81515 -1.41037,3.65099 -1.92676,5.46615 -0.29439,1.03481 -0.18121,1.97786 -0.48569,3.01377 -0.34819,1.18462 -0.98931,2.3643 -1.44373,3.55055 -0.69705,1.81962 -1.18857,3.65073 -1.92676,5.46616 -0.11671,0.28706 -0.25454,0.69094 -0.48035,0.81747 -0.45161,0.25305 -0.50374,-0.81442 -0.95535,-0.56138 -0.22581,0.12652 -0.25454,0.69095 -0.48035,0.81746 -0.45161,0.25305 -0.52732,-0.63772 -0.95536,-0.56138 -2.98753,0.53289 0.54384,0.2436 -1.43838,1.35425 -0.22581,0.12652 -0.25188,-0.40721 -0.47768,-0.28069 -0.2258,0.12653 -0.32022,0.54497 -0.48034,0.81745 -0.16012,0.2725 -0.32024,0.54499 -0.48035,0.81747 -2.40176,4.08732 -4.80352,8.17465 -7.20527,12.26196 -0.32024,0.54497 -0.72729,1.06083 -0.96071,1.63493 -0.78094,1.92057 -0.32088,2.94482 -0.96872,4.92939 1.41284,2.33609 -1.78674,3.43307 -2.40444,5.18547 -0.22707,0.64419 -0.38263,1.29259 -0.48303,1.91562 -0.038,0.23536 0.24825,1.50589 -0.48302,1.91561 -0.33627,0.18846 -1.89254,-1.49189 -2.3884,-1.40344 -1.05625,0.1884 -1.23135,1.00194 -1.91872,2.17171 -0.16011,0.27249 -0.37879,0.52937 -0.48035,0.81746 -0.22708,0.64418 -0.22204,1.27376 -0.48303,1.91561 -0.28392,0.69823 -2.38259,4.05468 -2.88211,4.90478 -0.11415,0.19426 -1.76021,3.1181 -1.92141,3.26985 -0.30323,0.28551 -0.6387,0.35782 -0.95802,0.53677 -0.63871,0.35782 -1.29014,0.86623 -1.91607,1.07355 -0.22132,0.0733 -0.26366,-0.31886 -0.47767,-0.28069 -0.88706,0.15823 -0.94146,0.50856 -1.43839,1.35424 -0.32023,0.54498 -0.7576,1.05875 -0.9607,1.63493 -0.14361,0.40743 0.0608,0.70412 -0.003,1.09815 -0.1004,0.62303 -0.38262,1.2926 -0.48302,1.91561 -0.12701,0.78807 0.12166,1.40824 -0.005,2.19631 -0.1004,0.62302 -0.48161,1.33684 -0.48303,1.91562 -0.001,0.57878 0.47642,0.80006 0.47501,1.37884 -6.4e-4,0.25884 -0.32023,0.54497 -0.48034,0.81747 -0.32024,0.54497 -0.64047,1.08995 -0.96071,1.63492 -0.16012,0.27249 -0.25455,0.69095 -0.48035,0.81747 -0.22581,0.12653 -0.31847,-0.18713 -0.47769,-0.28069 -0.95534,-0.56137 -1.9107,-1.12275 -2.86605,-1.68413 -0.15923,-0.0936 1.87003,1.65077 -0.47768,-0.28069 -0.42885,0.40375 0.78175,3.69736 0.46151,2.34604 -0.0729,-0.30752 -1.85766,-0.17228 -1.90257,0.10634 -0.127,0.78808 0.067,1.42917 -0.005,2.19632 -0.0922,0.9779 -0.3683,2.02539 -0.4857,3.01376 -0.046,0.38768 0.0434,0.71048 -0.003,1.09816 -0.11145,0.93838 -0.52045,3.65763 -0.96872,4.92938 -0.1812,0.514 -1.12542,1.91523 -1.44106,2.4524 -0.16011,0.27249 -0.32023,0.54498 -0.48035,0.81745 -0.16011,0.27249 -0.26592,0.6156 -0.48035,0.81747 -1.59017,1.49715 -0.44553,0.0795 -1.43571,0.25609 -0.30265,0.054 -0.65535,0.48279 -0.95803,0.53677 -0.76571,0.13657 -0.16298,-1.18445 -1.43571,0.25608 -0.4045,0.45784 -0.57278,1.15162 -0.9607,1.63492 -0.43369,0.54038 -1.00468,0.81388 -1.43838,1.35425 -0.29917,0.37274 -2.67427,4.43284 -2.88211,4.90479 -0.39776,0.90297 -0.61486,1.82326 -0.96338,2.73307 -3.02249,7.89007 -0.0973,-0.26937 -2.4071,6.28363 -0.32113,0.91102 -0.54672,1.83448 -0.96338,2.73307 -0.65881,1.42082 -1.60118,2.72489 -2.40177,4.08733 -1.28093,2.1799 -2.56187,4.3598 -3.8428,6.53971 -0.3317,0.56447 -1.84796,2.97866 -1.92142,3.26985 -0.10182,0.40386 0.0992,0.69431 -0.003,1.09816 -0.072,0.28556 -0.32023,0.54497 -0.48035,0.81746 -0.39327,0.66926 -2.19368,3.49705 -2.40175,4.08732 -0.22707,0.64419 -0.22204,1.27377 -0.48302,1.91562 -0.23342,0.5741 -0.8167,1.0638 -0.96071,1.63493 -0.20366,0.80769 0.19831,1.38861 -0.005,2.1963 -0.14401,0.57114 -0.72727,1.06083 -0.9607,1.63494 -0.26099,0.64184 -0.20178,1.27711 -0.48303,1.9156 -0.0455,0.10338 -3.28344,5.6478 -3.36246,5.72226 -0.21445,0.20182 -0.27601,-0.27806 -0.47768,-0.28069 -0.45099,-0.006 -0.98472,0.26189 -1.43569,0.25609 -0.40339,-0.005 -0.50375,-0.81442 -0.95537,-0.56139 -0.1183,0.0664 -1.62019,2.75724 -1.9214,3.26986 -0.32024,0.54498 -0.78164,1.05944 -0.96071,1.63493 -0.50612,1.62666 -0.46528,4.40088 -0.97139,6.02753 -0.17907,0.5755 -0.7576,1.05875 -0.96071,1.63494 -0.14361,0.40743 0.0992,0.6943 -0.003,1.09815 -0.072,0.28557 -0.40835,0.53189 -0.48036,0.81746 -0.10182,0.40385 0.22374,0.71281 -0.003,1.09816 -0.32022,0.54496 -0.5273,-0.63774 -0.95535,-0.56137 -0.30265,0.054 -0.64505,0.4331 -0.95802,0.53676 -0.72889,0.24142 -1.56925,0.0166 -2.39374,0.79287 -0.21444,0.20182 -0.32023,0.54497 -0.48035,0.81745 -0.48035,0.81747 -1.22503,1.59571 -1.44105,2.45239 -0.072,0.28558 0.54968,-0.005 0.47767,0.28069 -0.144,0.57114 -0.64047,1.08996 -0.96071,1.63494 -0.002,0.7321 0.12167,1.40824 -0.005,2.19631 -0.008,0.049 -2.26355,3.93086 -2.40177,4.08732 -0.45224,0.51187 -1.00468,0.81386 -1.43837,1.35423 -1.04135,1.29748 -1.84076,3.6073 -2.88211,4.90479 -0.4337,0.54037 -1.01748,0.79779 -1.43839,1.35423 -0.56469,0.74654 0.045,1.97014 -0.43539,2.78761 -0.32024,0.54498 -1.90054,2.73694 -2.97202,0.9645 -0.3691,0.90771 -1.93518,0.98731 0.0423,3.0683 -0.11672,0.28705 -0.32024,0.54497 -0.48036,0.81746 -0.32023,0.54498 -0.64047,1.08995 -0.9607,1.63493 -0.16012,0.27249 -1.27158,-0.39007 -1.48601,-0.18819 -2.9931,2.81799 1.55219,0.15116 -0.43005,1.26173 -0.45161,0.25305 -1.70512,0.39313 -2.13398,0.79689 -0.30323,0.2855 0.51849,1.08934 0.21525,1.37482 -0.21441,0.20191 -0.25455,0.69094 -0.48035,0.81746 -0.50491,0.28293 -0.93078,-0.0268 -1.43571,0.25608 -0.2258,0.12652 -0.26593,0.61559 -0.48035,0.81747 -3.29145,3.0989 3.57719,-3.01729 -1.05554,2.22623 -0.20224,0.22893 -0.99067,1.71825 -1.82122,0.48225 -0.32024,0.54497 0.5328,1.25756 -0.96071,1.63492 0.86053,0.81747 -0.22565,1.93098 -0.603,2.78762 -0.28125,0.6385 -1.16006,0.94185 -1.32107,1.58039 -0.79844,3.16647 -0.6316,2.36575 -1.45176,6.84501 -0.18529,1.01191 -0.16289,1.97628 -0.4857,3.01377 -0.17905,0.57548 -0.78164,1.05943 -0.9607,1.63492 -0.19267,0.61924 -0.52384,4.17227 -0.96872,4.92939 -0.16012,0.27249 -0.31846,-0.18713 -0.47768,-0.28069 -1.27382,-0.74851 -2.54761,-1.49701 -3.82142,-2.24551 -0.15922,-0.0936 -0.25187,-0.4072 -0.47768,-0.28069 -0.2258,0.12653 -0.32023,0.54497 -0.48035,0.81747 -0.16012,0.27249 -0.32023,0.54497 -0.48035,0.81746 -1.28093,2.1799 -2.56188,4.35981 -3.84282,6.53971 -0.64047,1.08995 -1.28093,2.1799 -1.9214,3.26985 -0.16011,0.27249 -0.32112,0.91103 -0.48035,0.81747 -0.15922,-0.0936 0.64046,-1.08995 0.48035,-0.81747 -0.32023,0.54498 -0.64047,1.08996 -0.9607,1.63494 -0.18045,0.3071 -2.37787,4.07391 -2.40176,4.08732 -0.3191,0.17874 -0.63627,-0.74016 -0.95535,-0.56139 -0.22581,0.12653 -0.25455,0.69096 -0.48035,0.81747 -0.22581,0.12653 -0.63779,-0.008 -0.47768,-0.28068 0.16012,-0.2725 0.6369,0.37424 0.47768,0.28068 -0.79613,-0.46781 -1.59227,-0.93563 -2.38838,-1.40343 -0.15923,-0.0936 -0.47832,-0.0219 -0.47769,-0.2807 10e-4,-0.57878 0.58068,-1.40355 0.48303,-1.91561 -0.0873,-0.45801 -0.72408,-0.24767 -0.95536,-0.56138 -0.25853,-0.35076 -0.21642,-1.0281 -0.475,-1.37884 -0.23128,-0.31372 -0.81374,-0.15029 -0.95535,-0.56138 -0.20027,-0.58137 0.20563,-1.61494 0.005,-2.19631 -0.14161,-0.41109 -0.72409,-0.24766 -0.95536,-0.56138 -0.51715,-0.70149 -0.43286,-2.05619 -0.95,-2.75767 -0.31547,-0.42794 -1.63867,-0.64887 -1.91072,-1.12276 -0.22454,-0.39115 -0.25044,-0.98769 -0.47499,-1.37884 -0.10047,-0.17491 -0.31845,-0.18714 -0.47768,-0.28069 -0.47767,-0.28069 -0.95535,-0.56138 -1.43303,-0.84207 -1.11457,-0.65494 -2.22917,-1.30988 -3.34373,-1.96481 -0.63691,-0.37426 -1.44816,-0.49533 -1.91071,-1.12276 -0.16357,-0.22182 0.16621,-0.87632 0.003,-1.09815 -0.3469,-0.47057 -1.05882,-0.40652 -1.43301,-0.84206 -0.27892,-0.32465 -0.1961,-1.05421 -0.47501,-1.37885 -0.40298,-0.46906 -2.65292,-1.55889 -3.34374,-1.96482 -2.54762,-1.497 -5.09522,-2.99401 -7.64283,-4.49101 -2.70684,-1.59057 -5.41368,-3.18114 -8.12051,-4.77172 -0.79613,-0.46781 -1.59226,-0.93562 -2.38838,-1.40343 -0.15923,-0.0936 -0.31846,-0.18714 -0.47768,-0.2807 -0.15923,-0.0936 -0.26365,-0.31885 -0.47768,-0.28068 -0.30266,0.054 -0.65535,0.48279 -0.95803,0.53677 -0.18876,0.0337 -1.66092,-0.97597 -1.9107,-1.12275 -0.79614,-0.46781 -1.59226,-0.93562 -2.38839,-1.40344 -0.15923,-0.0936 -0.25188,-0.40721 -0.47768,-0.2807 -0.22581,0.12653 -0.32023,0.54498 -0.48035,0.81747"
       id="path3767"
       inkscape:connector-curvature="0"
       sodipodi:nodetypes="ccccssccsccccccsscscccccsccsccscccccscscccccsssccsccscccccccccccccccsccccccccccccccscccccccssscsccscccccccscccccccccccsccccscssccscsscccccccsccsccccsccccccccccccsccccccccccccccccccsccccccscccssccccccsccscscccscccsccscccccccssccscscccccsccccccsccscccccsccccccccccscccssccccccccscccsccccsscccccscccscccssssscssccsccscccsccsccssccccscccccccscsccsccccccccccscccscsscccsscsccccccccccccccsscccccccsscsccccscccccsccccsscscscccssccssccccscccccsccccccssccssssscccccccc" />
  </g>
</svg>
