<?xml version="1.0" encoding="UTF-8" standalone="no"?>
<!-- Generator: Adobe Illustrator 16.0.0, SVG Export Plug-In . SVG Version: 6.00 Build 0)  -->

<svg
   xmlns:dc="http://purl.org/dc/elements/1.1/"
   xmlns:cc="http://creativecommons.org/ns#"
   xmlns:rdf="http://www.w3.org/1999/02/22-rdf-syntax-ns#"
   xmlns:svg="http://www.w3.org/2000/svg"
   xmlns="http://www.w3.org/2000/svg"
   xmlns:sodipodi="http://sodipodi.sourceforge.net/DTD/sodipodi-0.dtd"
   xmlns:inkscape="http://www.inkscape.org/namespaces/inkscape"
   version="1.1"
   id="Layer_11"
   x="0px"
   y="0px"
   width="100px"
   height="100px"
   viewBox="0 0 100 100"
   enable-background="new 0 0 100 100"
   xml:space="preserve"
   inkscape:version="0.48.5 r10040"
   sodipodi:docname="user82.svg"
   inkscape:export-filename="C:\Users\dgiger\Documents\GitHub\BillSplitter\app\src\main\res\drawable-xxhdpi\ic_user.png"
   inkscape:export-xdpi="460.79999"
   inkscape:export-ydpi="460.79999"><metadata
   id="metadata9"><rdf:RDF><cc:Work
       rdf:about=""><dc:format>image/svg+xml</dc:format><dc:type
         rdf:resource="http://purl.org/dc/dcmitype/StillImage" /><dc:title></dc:title></cc:Work></rdf:RDF></metadata><defs
   id="defs7" /><sodipodi:namedview
   pagecolor="#ffffff"
   bordercolor="#666666"
   borderopacity="1"
   objecttolerance="10"
   gridtolerance="10"
   guidetolerance="10"
   inkscape:pageopacity="0"
   inkscape:pageshadow="2"
   inkscape:window-width="1079"
   inkscape:window-height="701"
   id="namedview5"
   showgrid="false"
   inkscape:zoom="2.36"
   inkscape:cx="23.004843"
   inkscape:cy="50"
   inkscape:window-x="678"
   inkscape:window-y="219"
   inkscape:window-maximized="0"
   inkscape:current-layer="Layer_11" />
<path
   sodipodi:type="arc"
   style="fill:#ffffff;fill-opacity:1;stroke:none"
   id="path2986-1"
   sodipodi:cx="62.923729"
   sodipodi:cy="57.415253"
   sodipodi:rx="49.364407"
   sodipodi:ry="47.245762"
   d="m 112.28814,57.415253 a 49.364407,47.245762 0 1 1 -98.728818,0 49.364407,47.245762 0 1 1 98.728818,0 z"
   transform="translate(-12.923729,-7.4152527)" /><path
   style="fill:#33b5e5;fill-opacity:1;stroke:none"
   d="M 50 2.75 C 22.736791 2.75 0.625 23.906886 0.625 50 C 0.625 65.571303 8.5147241 79.3929 20.65625 88 L 20.65625 81.125 C 20.65625 69.639 29.49075 60.1925 40.71875 59.1875 C 35.95275 56.1255 32.78125 50.80275 32.78125 44.71875 C 32.78125 35.21075 40.49 27.5 50 27.5 C 59.506 27.5 67.21875 35.21075 67.21875 44.71875 C 67.21875 50.80275 64.04625 56.1245 59.28125 59.1875 C 70.51025 60.1945 79.34475 69.67025 79.34375 81.15625 L 79.34375 88 C 91.485276 79.3929 99.375 65.571303 99.375 50 C 99.375 23.906886 77.263209 2.75 50 2.75 z "
   id="path2986" />
</svg>